<svg width="19" height="33" viewBox="0 0 19 33" fill="none" xmlns="http://www.w3.org/2000/svg">
<path fill-rule="evenodd" clip-rule="evenodd" d="M17.8413 14.4067C18.4501 15.029 18.7921 15.8726 18.7921 16.7522C18.7921 17.6317 18.4501 18.4753 17.8413 19.0977L5.58257 31.6173C4.97268 32.2397 4.14561 32.5892 3.28329 32.589C2.42098 32.5888 1.59407 32.2389 0.984471 31.6162C0.374869 30.9936 0.0325117 30.1492 0.0327149 29.2688C0.0329182 28.3885 0.375665 27.5443 0.985554 26.9219L10.9468 16.7522L0.985554 6.58246C0.39305 5.95675 0.0649682 5.1185 0.0719709 4.24823C0.0789736 3.37797 0.4205 2.54533 1.02299 1.92965C1.62549 1.31397 2.44074 0.964509 3.29316 0.956539C4.14558 0.948569 4.96696 1.28273 5.5804 1.88704L17.8434 14.4045L17.8413 14.4067Z" fill="#3375B1"/>
</svg>
