<svg width="55" height="55" viewBox="0 0 55 55" fill="none" xmlns="http://www.w3.org/2000/svg">
<path d="M20.2813 38.5573L27.5 34.2032L34.7188 38.6146L32.8281 30.3646L39.1875 24.8646L30.8229 24.1198L27.5 16.3282L24.1771 24.0625L15.8125 24.8073L22.1719 30.3646L20.2813 38.5573ZM27.5 39.5886L17.9896 45.3177C17.5695 45.5851 17.1302 45.6997 16.6719 45.6615C16.2136 45.6233 15.8125 45.4705 15.4688 45.2032C15.125 44.9358 14.8577 44.602 14.6667 44.2017C14.4757 43.8014 14.4375 43.3523 14.5521 42.8542L17.0729 32.0261L8.65106 24.75C8.26912 24.4063 8.03079 24.0144 7.93606 23.5744C7.84134 23.1344 7.8696 22.7051 8.02085 22.2865C8.1721 21.8679 8.40127 21.5241 8.70835 21.2552C9.01544 20.9864 9.43558 20.8145 9.96877 20.7396L21.0834 19.7657L25.3802 9.56775C25.5712 9.10942 25.8676 8.76567 26.2694 8.5365C26.6712 8.30733 27.0814 8.19275 27.5 8.19275C27.9186 8.19275 28.3288 8.30733 28.7306 8.5365C29.1325 8.76567 29.4288 9.10942 29.6198 9.56775L33.9167 19.7657L45.0313 20.7396C45.566 20.816 45.9861 20.9879 46.2917 21.2552C46.5972 21.5226 46.8264 21.8664 46.9792 22.2865C47.132 22.7066 47.161 23.1367 47.0663 23.5767C46.9715 24.0167 46.7325 24.4078 46.349 24.75L37.9271 32.0261L40.4479 42.8542C40.5625 43.3507 40.5243 43.7999 40.3334 44.2017C40.1424 44.6035 39.875 44.9373 39.5313 45.2032C39.1875 45.469 38.7865 45.6218 38.3281 45.6615C37.8698 45.7012 37.4306 45.5866 37.0104 45.3177L27.5 39.5886Z" fill="black"/>
</svg>
