<svg width="45" height="45" viewBox="0 0 45 45" fill="none" xmlns="http://www.w3.org/2000/svg">
<path d="M22.5 24.1875L18.5062 28.1063C17.4562 29.1563 16.875 30.525 16.875 31.9875C16.875 35.025 19.4062 37.5 22.5 37.5C25.5938 37.5 28.125 35.025 28.125 31.9875C28.125 30.525 27.5437 29.1375 26.4938 28.1063L22.5 24.1875Z" fill="#F24822"/>
<path opacity="0.3" d="M30 11.25L29.175 12.2813C26.9625 15.0375 22.5 13.4813 22.5 9.9375V3.75C22.5 3.75 7.5 11.25 7.5 24.375C7.5 29.85 10.425 34.6313 14.7937 37.2375C13.7437 35.7563 13.125 33.9375 13.125 31.9875C13.125 29.5125 14.1 27.1875 15.8813 25.425L22.5 18.9375L29.1187 25.4438C30.9 27.1875 31.875 29.5125 31.875 32.0063C31.875 33.9188 31.2937 35.6813 30.2812 37.1625C33.825 35.0063 36.45 31.425 37.2375 27.225C38.475 20.5688 35.2313 14.2875 30 11.25Z" fill="#F24822"/>
</svg>
