<svg width="27" height="27" viewBox="0 0 27 27" fill="none" xmlns="http://www.w3.org/2000/svg">
<path d="M4.6929 22.5592C4.09657 22.5592 3.58608 22.347 3.16143 21.9227C2.73677 21.4984 2.52444 20.9883 2.52444 20.3925V7.3925C2.52444 6.79666 2.73677 6.28659 3.16143 5.86229C3.58608 5.43798 4.09657 5.22583 4.6929 5.22583H22.0406C22.6369 5.22583 23.1474 5.43798 23.5721 5.86229C23.9967 6.28659 24.209 6.79666 24.209 7.3925V20.3925C24.209 20.9883 23.9967 21.4984 23.5721 21.9227C23.1474 22.347 22.6369 22.5592 22.0406 22.5592H4.6929ZM13.3667 14.9758L4.6929 9.55916V20.3925H22.0406V9.55916L13.3667 14.9758ZM13.3667 12.8092L22.0406 7.3925H4.6929L13.3667 12.8092ZM4.6929 9.55916V7.3925V20.3925V9.55916Z" fill="#777777"/>
</svg>
