<svg width="44" height="45" viewBox="0 0 44 45" fill="none" xmlns="http://www.w3.org/2000/svg">
<path d="M33 10.1323C32.3698 10.1323 31.7324 10.1252 31.0879 10.1108C30.4434 10.0965 29.806 10.1037 29.1758 10.1323C28.832 10.1323 28.4883 10.1466 28.1445 10.1753C27.8008 10.2039 27.4714 10.2612 27.1562 10.3472C26.4115 10.519 25.9173 10.8413 25.6738 11.314C25.4303 11.7866 25.2943 12.3094 25.2656 12.8823C25.237 13.5985 25.2298 14.3289 25.2441 15.0737C25.2585 15.8185 25.2656 16.5776 25.2656 17.3511C26.526 17.3511 27.7721 17.3511 29.0039 17.3511C30.2357 17.3511 31.4961 17.3511 32.7852 17.3511C32.6133 18.411 32.4414 19.4637 32.2695 20.5093C32.0977 21.5548 31.9258 22.6076 31.7539 23.6675C30.694 23.6675 29.627 23.6675 28.5527 23.6675C27.4785 23.6675 26.3971 23.6675 25.3086 23.6675C25.3086 25.0425 25.3086 26.4032 25.3086 27.7495C25.3086 29.1245 25.3086 30.4924 25.3086 31.853C25.3086 33.2137 25.3086 34.5815 25.3086 35.9565C25.3086 37.3029 25.3086 38.6636 25.3086 40.0386C23.9622 40.0386 22.6445 40.0386 21.3555 40.0386C20.0664 40.0386 18.763 40.0386 17.4453 40.0386C17.4453 38.6922 17.4453 37.3315 17.4453 35.9565C17.4453 34.6102 17.4453 33.2567 17.4453 31.896C17.4453 30.5353 17.4453 29.1675 17.4453 27.7925C17.4453 26.4461 17.4453 25.0854 17.4453 23.7104C16.3854 23.7104 15.3184 23.7104 14.2441 23.7104C13.1699 23.7104 12.0885 23.7104 11 23.7104C11 22.6506 11 21.5978 11 20.5522C11 19.5067 11 18.4396 11 17.3511C12.0599 17.3511 13.1198 17.3511 14.1797 17.3511C15.2396 17.3511 16.3138 17.3511 17.4023 17.3511C17.4023 17.2078 17.4095 17.0789 17.4238 16.9644C17.4382 16.8498 17.4453 16.7352 17.4453 16.6206C17.474 15.7326 17.4883 14.8374 17.4883 13.9351C17.4883 13.0327 17.5169 12.1232 17.5742 11.2065C17.6602 9.40186 18.4551 7.84066 19.959 6.52295C21.4629 5.20524 23.2747 4.46045 25.3945 4.28857C26.6549 4.17399 27.9154 4.13818 29.1758 4.18115C30.4362 4.22412 31.7109 4.3029 33 4.41748C33 5.39144 33 6.34391 33 7.2749C33 8.20589 33 9.15837 33 10.1323Z" fill="#333333"/>
</svg>
