<svg width="44" height="45" viewBox="0 0 44 45" fill="none" xmlns="http://www.w3.org/2000/svg">
<path d="M10.5273 25.8159H0V28.3081H43.8711V25.8159H33.3438H10.5273ZM10.5273 30.7573H0V33.2495H43.8711V30.7573H33.3438H10.5273ZM10.5273 35.6987H0V38.2339H43.8711V35.6987H33.3438H10.5273ZM25.8672 8.54248H43.8711V6.00732H0V23.3667H43.8711V20.8745H22.5586V18.4253H43.8711V15.9331H22.5586V13.4839H43.8711V10.9917H22.5586V8.54248H25.8672ZM17.4883 8.06982L17.832 7.33936L18.2188 8.06982L18.9922 8.19873L18.4336 8.75732L18.5625 9.57373L17.832 9.18701L17.1445 9.57373L17.2734 8.75732L16.6719 8.19873L17.4883 8.06982ZM15.8125 11.5073L16.1562 12.2378L16.9727 12.3237L16.3711 12.8823L16.5 13.6987L15.8125 13.312L15.082 13.6987L15.2109 12.8823L14.6523 12.3237L15.4258 12.2378L15.8125 11.5073ZM13.1484 8.06982L13.4922 7.33936L13.8359 8.06982L14.6523 8.19873L14.0508 8.75732L14.2227 9.57373L13.4922 9.18701L12.7617 9.57373L12.8906 8.75732L12.332 8.19873L13.1484 8.06982ZM11.4297 11.5073L11.8164 12.2378L12.5898 12.3237L12.0312 12.8823L12.1602 13.6987L11.4297 13.312L10.7422 13.6987L10.8711 12.8823L10.2695 12.3237L11.0859 12.2378L11.4297 11.5073ZM8.76562 8.06982L9.10938 7.33936L9.49609 8.06982L10.2695 8.19873L9.71094 8.75732L9.83984 9.57373L9.10938 9.18701L8.42188 9.57373L8.55078 8.75732L7.99219 8.19873L8.76562 8.06982ZM6.74609 12.2378L7.08984 11.5073L7.43359 12.2378L8.25 12.3237L7.64844 12.8823L7.77734 13.6987L7.08984 13.312L6.35938 13.6987L6.48828 12.8823L5.92969 12.3237L6.74609 12.2378ZM2.36328 12.2378L2.70703 11.5073L3.09375 12.2378L3.86719 12.3237L3.30859 12.8823L3.4375 13.6987L2.70703 13.312L2.01953 13.6987L2.14844 12.8823L1.54688 12.3237L2.36328 12.2378ZM3.4375 21.9487L2.70703 21.562L2.01953 21.9487L2.14844 21.1323L1.54688 20.5737L2.36328 20.4448L2.70703 19.7573L3.09375 20.4448L3.86719 20.5737L3.30859 21.1323L3.4375 21.9487ZM5.5 17.9526L4.76953 17.5659L4.03906 17.9526L4.21094 17.1362L3.60938 16.5776L4.42578 16.4487L4.76953 15.7183L5.11328 16.4487L5.92969 16.5776L5.32812 17.1362L5.5 17.9526ZM5.32812 8.75732L5.5 9.57373L4.76953 9.18701L4.03906 9.57373L4.21094 8.75732L3.60938 8.19873L4.42578 8.06982L4.76953 7.33936L5.11328 8.06982L5.92969 8.19873L5.32812 8.75732ZM7.77734 21.9487L7.08984 21.562L6.35938 21.9487L6.48828 21.1323L5.92969 20.5737L6.74609 20.4448L7.08984 19.7573L7.43359 20.4448L8.25 20.5737L7.64844 21.1323L7.77734 21.9487ZM9.10938 17.5659L8.42188 17.9526L8.55078 17.1362L7.99219 16.5776L8.76562 16.4487L9.10938 15.7183L9.49609 16.4487L10.2695 16.5776L9.71094 17.1362L9.83984 17.9526L9.10938 17.5659ZM12.1602 21.9487L11.4297 21.562L10.7422 21.9487L10.8711 21.1323L10.2695 20.5737L11.0859 20.4448L11.4297 19.7573L11.8164 20.4448L12.5898 20.5737L12.0312 21.1323L12.1602 21.9487ZM13.4922 17.5659L12.7617 17.9526L12.8906 17.1362L12.332 16.5776L13.1484 16.4487L13.4922 15.7183L13.8359 16.4487L14.6523 16.5776L14.0508 17.1362L14.2227 17.9526L13.4922 17.5659ZM16.5 21.9487L15.8125 21.562L15.082 21.9487L15.2109 21.1323L14.6523 20.5737L15.4258 20.4448L15.8125 19.7573L16.1562 20.4448L16.9727 20.5737L16.3711 21.1323L16.5 21.9487ZM17.832 17.5659L17.1445 17.9526L17.2734 17.1362L16.6719 16.5776L17.4883 16.4487L17.832 15.7183L18.2188 16.4487L18.9922 16.5776L18.4336 17.1362L18.5625 17.9526L17.832 17.5659ZM20.8828 21.9487L20.1523 21.562L19.4648 21.9487L19.5938 21.1323L18.9922 20.5737L19.8086 20.4448L20.1523 19.7573L20.5391 20.4448L21.3125 20.5737L20.7539 21.1323L20.8828 21.9487ZM20.7539 12.8823L20.8828 13.6987L20.1523 13.312L19.4648 13.6987L19.5938 12.8823L18.9922 12.3237L19.8086 12.2378L20.1523 11.5073L20.5391 12.2378L21.3125 12.3237L20.7539 12.8823Z" fill="#333333"/>
</svg>
