<svg width="17" height="17" viewBox="0 0 17 17" fill="none" xmlns="http://www.w3.org/2000/svg">
<path d="M10.4399 5.87625C10.4399 5.98042 10.4191 6.07938 10.3774 6.17313C10.3358 6.26688 10.2733 6.35542 10.1899 6.43875C10.1066 6.51167 10.0155 6.56636 9.9165 6.60281C9.81755 6.63927 9.71077 6.6575 9.59619 6.6575C9.48161 6.6575 9.37484 6.63927 9.27588 6.60281C9.17692 6.56636 9.08577 6.51167 9.00244 6.43875C8.91911 6.35542 8.85661 6.26688 8.81494 6.17313C8.77327 6.07938 8.75244 5.98042 8.75244 5.87625C8.75244 5.76167 8.77327 5.66011 8.81494 5.57156C8.85661 5.48302 8.91911 5.39708 9.00244 5.31375C9.08577 5.24083 9.17692 5.18354 9.27588 5.14188C9.37484 5.10021 9.48161 5.07938 9.59619 5.07938C9.71077 5.07938 9.81755 5.10021 9.9165 5.14188C10.0155 5.18354 10.1066 5.24083 10.1899 5.31375C10.2733 5.39708 10.3358 5.48302 10.3774 5.57156C10.4191 5.66011 10.4399 5.76167 10.4399 5.87625ZM10.3462 11.1263L10.2524 11.5169C10.1066 11.569 9.979 11.6158 9.86963 11.6575C9.76025 11.6992 9.65869 11.7356 9.56494 11.7669C9.48161 11.7981 9.39046 11.8216 9.2915 11.8372C9.19255 11.8528 9.09098 11.8606 8.98682 11.8606C8.80973 11.8606 8.65609 11.8398 8.52588 11.7981C8.39567 11.7565 8.27848 11.694 8.17432 11.6106C8.08057 11.5273 8.01025 11.4309 7.96338 11.3216C7.9165 11.2122 7.89307 11.095 7.89307 10.97C7.89307 10.9179 7.89567 10.8658 7.90088 10.8138C7.90609 10.7617 7.9139 10.7096 7.92432 10.6575C7.92432 10.6054 7.92952 10.5507 7.93994 10.4934C7.95036 10.4361 7.96598 10.371 7.98682 10.2981L8.33057 9.04813C8.3514 8.98563 8.36963 8.92573 8.38525 8.86844C8.40088 8.81115 8.4139 8.75646 8.42432 8.70438C8.43473 8.65229 8.44255 8.60281 8.44775 8.55594C8.45296 8.50906 8.45557 8.45958 8.45557 8.4075C8.45557 8.33458 8.44515 8.26948 8.42432 8.21219C8.40348 8.1549 8.37744 8.11063 8.34619 8.07938C8.31494 8.04813 8.26807 8.02469 8.20557 8.00906C8.14307 7.99344 8.06494 7.98563 7.97119 7.98563C7.92952 7.98563 7.88525 7.98823 7.83838 7.99344C7.7915 7.99865 7.74202 8.01167 7.68994 8.0325C7.63786 8.04292 7.59359 8.05594 7.55713 8.07156C7.52067 8.08719 7.48161 8.10021 7.43994 8.11063L7.53369 7.72C7.64827 7.66792 7.76286 7.62365 7.87744 7.58719C7.99202 7.55073 8.1014 7.51167 8.20557 7.47C8.30973 7.43875 8.4113 7.41531 8.51025 7.39969C8.60921 7.38406 8.70557 7.37625 8.79932 7.37625C8.9764 7.37625 9.13005 7.39708 9.26025 7.43875C9.39046 7.48042 9.50244 7.54292 9.59619 7.62625C9.68994 7.70958 9.76025 7.80333 9.80713 7.9075C9.854 8.01167 9.87744 8.13146 9.87744 8.26688C9.87744 8.29813 9.87484 8.33719 9.86963 8.38406C9.86442 8.43094 9.85661 8.48563 9.84619 8.54813C9.84619 8.62104 9.84098 8.68875 9.83057 8.75125C9.82015 8.81375 9.80452 8.87625 9.78369 8.93875L9.42432 10.1888C9.4139 10.2304 9.40348 10.2799 9.39307 10.3372C9.38265 10.3945 9.36702 10.4596 9.34619 10.5325C9.33577 10.595 9.32796 10.6497 9.32275 10.6966C9.31755 10.7434 9.31494 10.7825 9.31494 10.8138C9.31494 10.8971 9.32536 10.9674 9.34619 11.0247C9.36702 11.082 9.39307 11.1263 9.42432 11.1575C9.46598 11.1888 9.51807 11.2122 9.58057 11.2278C9.64307 11.2434 9.72119 11.2513 9.81494 11.2513C9.85661 11.2513 9.90348 11.246 9.95557 11.2356C10.0076 11.2252 10.0597 11.2148 10.1118 11.2044C10.1639 11.194 10.2108 11.1809 10.2524 11.1653C10.2941 11.1497 10.3254 11.1367 10.3462 11.1263ZM9.09619 3.095C9.83577 3.095 10.5337 3.23563 11.1899 3.51688C11.8462 3.79813 12.4165 4.18094 12.9009 4.66531C13.3853 5.14969 13.7681 5.72 14.0493 6.37625C14.3306 7.0325 14.4712 7.73042 14.4712 8.47C14.4712 9.20958 14.3306 9.9075 14.0493 10.5638C13.7681 11.22 13.3853 11.7903 12.9009 12.2747C12.4165 12.7591 11.8462 13.1419 11.1899 13.4231C10.5337 13.7044 9.83577 13.845 9.09619 13.845C8.35661 13.845 7.65869 13.7044 7.00244 13.4231C6.34619 13.1419 5.77588 12.7591 5.2915 12.2747C4.80713 11.7903 4.42432 11.22 4.14307 10.5638C3.86182 9.9075 3.72119 9.20958 3.72119 8.47C3.72119 7.73042 3.86182 7.0325 4.14307 6.37625C4.42432 5.72 4.80713 5.14969 5.2915 4.66531C5.77588 4.18094 6.34619 3.79813 7.00244 3.51688C7.65869 3.23563 8.35661 3.095 9.09619 3.095ZM9.09619 2.39188C8.25244 2.39188 7.46077 2.54813 6.72119 2.86063C5.98161 3.18354 5.33838 3.61844 4.7915 4.16531C4.24463 4.71219 3.80973 5.35542 3.48682 6.095C3.1639 6.83458 3.00244 7.62625 3.00244 8.47C3.00244 9.31375 3.1639 10.1054 3.48682 10.845C3.80973 11.5846 4.24463 12.2278 4.7915 12.7747C5.33838 13.3216 5.98161 13.7565 6.72119 14.0794C7.46077 14.3919 8.25244 14.5481 9.09619 14.5481C9.93994 14.5481 10.7264 14.3919 11.4556 14.0794C12.1951 13.7565 12.841 13.3216 13.3931 12.7747C13.9451 12.2278 14.3826 11.5846 14.7056 10.845C15.0181 10.1054 15.1743 9.31375 15.1743 8.47C15.1743 7.62625 15.0181 6.83458 14.7056 6.095C14.3826 5.35542 13.9451 4.71219 13.3931 4.16531C12.841 3.61844 12.1951 3.18354 11.4556 2.86063C10.7264 2.54813 9.93994 2.39188 9.09619 2.39188Z" fill="#333333"/>
</svg>
