<svg width="44" height="45" viewBox="0 0 44 45" fill="none" xmlns="http://www.w3.org/2000/svg">
<path d="M30.6797 4.50342H13.6641C12.4036 4.50342 11.2292 4.76123 10.1406 5.27686C9.02344 5.76384 8.05664 6.42985 7.24023 7.2749C6.42383 8.11996 5.77214 9.1154 5.28516 10.2612C4.79818 11.4071 4.55469 12.6388 4.55469 13.9565V30.2847C4.55469 31.6024 4.79818 32.8341 5.28516 33.98C5.77214 35.1258 6.42383 36.1213 7.24023 36.9663C8.05664 37.8114 9.02344 38.4774 10.1406 38.9644C11.2292 39.48 12.4036 39.7378 13.6641 39.7378H30.6797C31.9401 39.7378 33.1146 39.48 34.2031 38.9644C35.3203 38.4774 36.2871 37.8114 37.1035 36.9663C37.9199 36.1213 38.5716 35.1258 39.0586 33.98C39.5169 32.8341 39.7461 31.6024 39.7461 30.2847V13.9565C39.7461 12.6388 39.5169 11.4071 39.0586 10.2612C38.5716 9.1154 37.9199 8.11996 37.1035 7.2749C36.2871 6.42985 35.3346 5.76384 34.2461 5.27686C33.1289 4.76123 31.9401 4.50342 30.6797 4.50342ZM35.6641 29.769C35.6641 31.3732 35.1198 32.7482 34.0312 33.894C32.9427 35.0399 31.6393 35.6128 30.1211 35.6128H14.2227C12.7044 35.6128 11.401 35.0399 10.3125 33.894C9.22396 32.7482 8.67969 31.3732 8.67969 29.769V14.4722C8.67969 12.868 9.22396 11.493 10.3125 10.3472C11.401 9.20133 12.7044 8.62842 14.2227 8.62842H30.1211C31.6393 8.62842 32.9427 9.20133 34.0312 10.3472C35.1198 11.493 35.6641 12.868 35.6641 14.4722V29.769ZM22 13.2261C20.7682 13.2261 19.6081 13.4552 18.5195 13.9136C17.4596 14.4006 16.5286 15.0451 15.7266 15.8472C14.9245 16.6493 14.2799 17.5802 13.793 18.6401C13.3346 19.7287 13.1055 20.8888 13.1055 22.1206C13.1055 23.3524 13.3346 24.5125 13.793 25.6011C14.2799 26.661 14.9245 27.592 15.7266 28.394C16.5286 29.1961 17.4596 29.8407 18.5195 30.3276C19.6081 30.786 20.7682 31.0151 22 31.0151C23.2318 31.0151 24.3919 30.786 25.4805 30.3276C26.5404 29.8407 27.4714 29.1961 28.2734 28.394C29.0755 27.592 29.7201 26.661 30.207 25.6011C30.6654 24.5125 30.8945 23.3524 30.8945 22.1206C30.8945 20.8888 30.6654 19.7287 30.207 18.6401C29.7201 17.5802 29.0755 16.6493 28.2734 15.8472C27.4714 15.0451 26.5404 14.4006 25.4805 13.9136C24.3919 13.4552 23.2318 13.2261 22 13.2261ZM22.1719 27.1909C20.7682 27.1909 19.5794 26.6968 18.6055 25.7085C17.6315 24.7202 17.1445 23.5243 17.1445 22.1206C17.1445 20.717 17.6387 19.521 18.627 18.5327C19.6152 17.5444 20.7969 17.0503 22.1719 17.0503C23.5755 17.0503 24.7715 17.5444 25.7598 18.5327C26.748 19.521 27.2422 20.717 27.2422 22.1206C27.2422 23.5243 26.748 24.7202 25.7598 25.7085C24.7715 26.6968 23.5755 27.1909 22.1719 27.1909ZM33.6016 13.312C33.6016 13.9995 33.3581 14.5939 32.8711 15.0952C32.3841 15.5965 31.7826 15.8472 31.0664 15.8472C30.3789 15.8472 29.7917 15.5965 29.3047 15.0952C28.8177 14.5939 28.5742 13.9995 28.5742 13.312C28.5742 12.6245 28.8177 12.0373 29.3047 11.5503C29.7917 11.0633 30.3789 10.8198 31.0664 10.8198C31.7826 10.8198 32.3841 11.0633 32.8711 11.5503C33.3581 12.0373 33.6016 12.6245 33.6016 13.312Z" fill="#333333"/>
</svg>
