<svg width="150" height="58" viewBox="0 0 150 58" fill="none" xmlns="http://www.w3.org/2000/svg">
<rect width="150" height="57.59" fill="#201C1D"/>
<path d="M23.9978 29H16.4138C16.1098 29 15.8858 28.936 15.7418 28.808C15.6138 28.664 15.5498 28.44 15.5498 28.136V25.328C15.5498 25.024 15.6138 24.808 15.7418 24.68C15.8858 24.536 16.1098 24.464 16.4138 24.464H22.8698C23.0778 24.464 23.2298 24.4 23.3258 24.272C23.4378 24.128 23.4938 23.96 23.4938 23.768C23.4938 23.496 23.4378 23.296 23.3258 23.168C23.2298 23.04 23.0778 22.968 22.8698 22.952L19.2698 22.448C18.1498 22.288 17.2458 21.92 16.5578 21.344C15.8858 20.768 15.5498 19.808 15.5498 18.464V15.944C15.5498 14.584 15.9898 13.544 16.8698 12.824C17.7498 12.088 18.9658 11.72 20.5178 11.72H27.2378C27.5418 11.72 27.7578 11.792 27.8858 11.936C28.0298 12.064 28.1018 12.28 28.1018 12.584V15.44C28.1018 15.744 28.0298 15.968 27.8858 16.112C27.7578 16.24 27.5418 16.304 27.2378 16.304H21.6458C21.4378 16.304 21.2778 16.376 21.1658 16.52C21.0538 16.648 20.9978 16.816 20.9978 17.024C20.9978 17.232 21.0538 17.408 21.1658 17.552C21.2778 17.696 21.4378 17.776 21.6458 17.792L25.2218 18.272C26.3418 18.432 27.2458 18.8 27.9338 19.376C28.6218 19.952 28.9658 20.912 28.9658 22.256V24.776C28.9658 26.136 28.5178 27.184 27.6218 27.92C26.7418 28.64 25.5338 29 23.9978 29ZM46.3658 29H42.6458C42.3418 29 42.1178 28.936 41.9738 28.808C41.8458 28.664 41.7818 28.44 41.7818 28.136V12.584C41.7818 12.28 41.8458 12.064 41.9738 11.936C42.1178 11.792 42.3418 11.72 42.6458 11.72H46.3658C46.6698 11.72 46.8858 11.792 47.0138 11.936C47.1578 12.064 47.2298 12.28 47.2298 12.584V17.792H51.2378V12.584C51.2378 12.28 51.3018 12.064 51.4298 11.936C51.5738 11.792 51.7978 11.72 52.1018 11.72H55.8218C56.1258 11.72 56.3418 11.792 56.4698 11.936C56.6138 12.064 56.6858 12.28 56.6858 12.584V28.136C56.6858 28.44 56.6138 28.664 56.4698 28.808C56.3418 28.936 56.1258 29 55.8218 29H52.1018C51.7978 29 51.5738 28.936 51.4298 28.808C51.3018 28.664 51.2378 28.44 51.2378 28.136V22.808H47.2298V28.136C47.2298 28.44 47.1578 28.664 47.0138 28.808C46.8858 28.936 46.6698 29 46.3658 29ZM82.1833 29H71.0473C70.7433 29 70.5193 28.936 70.3753 28.808C70.2473 28.664 70.1833 28.44 70.1833 28.136V12.584C70.1833 12.28 70.2473 12.064 70.3753 11.936C70.5193 11.792 70.7433 11.72 71.0473 11.72H82.1833C82.4873 11.72 82.7033 11.792 82.8313 11.936C82.9753 12.064 83.0473 12.28 83.0473 12.584V15.392C83.0473 15.696 82.9753 15.92 82.8313 16.064C82.7033 16.192 82.4873 16.256 82.1833 16.256H75.5593V18.104H80.2393C80.5433 18.104 80.7593 18.176 80.8873 18.32C81.0313 18.448 81.1033 18.664 81.1033 18.968V21.536C81.1033 21.84 81.0313 22.064 80.8873 22.208C80.7593 22.336 80.5433 22.4 80.2393 22.4H75.5593V24.464H82.1833C82.4873 24.464 82.7033 24.536 82.8313 24.68C82.9753 24.808 83.0473 25.024 83.0473 25.328V28.136C83.0473 28.44 82.9753 28.664 82.8313 28.808C82.7033 28.936 82.4873 29 82.1833 29ZM108.077 29H96.9411C96.6371 29 96.4131 28.936 96.2691 28.808C96.1411 28.664 96.0771 28.44 96.0771 28.136V12.584C96.0771 12.28 96.1411 12.064 96.2691 11.936C96.4131 11.792 96.6371 11.72 96.9411 11.72H108.077C108.381 11.72 108.597 11.792 108.725 11.936C108.869 12.064 108.941 12.28 108.941 12.584V15.392C108.941 15.696 108.869 15.92 108.725 16.064C108.597 16.192 108.381 16.256 108.077 16.256H101.453V18.104H106.133C106.437 18.104 106.653 18.176 106.781 18.32C106.925 18.448 106.997 18.664 106.997 18.968V21.536C106.997 21.84 106.925 22.064 106.781 22.208C106.653 22.336 106.437 22.4 106.133 22.4H101.453V24.464H108.077C108.381 24.464 108.597 24.536 108.725 24.68C108.869 24.808 108.941 25.024 108.941 25.328V28.136C108.941 28.44 108.869 28.664 108.725 28.808C108.597 28.936 108.381 29 108.077 29ZM126.555 29H122.835C122.531 29 122.307 28.936 122.163 28.808C122.035 28.664 121.971 28.44 121.971 28.136V12.584C121.971 12.28 122.035 12.064 122.163 11.936C122.307 11.792 122.531 11.72 122.835 11.72H130.179C132.355 11.72 133.843 12.152 134.643 13.016C135.443 13.88 135.843 15.008 135.843 16.4V19.472C135.843 20.864 135.443 21.992 134.643 22.856C133.843 23.72 132.355 24.152 130.179 24.152H127.419V28.136C127.419 28.44 127.347 28.664 127.203 28.808C127.075 28.936 126.859 29 126.555 29ZM127.371 16.208V19.832H129.531C129.995 19.832 130.299 19.712 130.443 19.472C130.587 19.232 130.659 18.96 130.659 18.656V17.384C130.659 17.08 130.587 16.808 130.443 16.568C130.299 16.328 129.995 16.208 129.531 16.208H127.371ZM37.5306 47H29.9466C29.6426 47 29.4186 46.936 29.2746 46.808C29.1466 46.664 29.0826 46.44 29.0826 46.136V43.328C29.0826 43.024 29.1466 42.808 29.2746 42.68C29.4186 42.536 29.6426 42.464 29.9466 42.464H36.4026C36.6106 42.464 36.7626 42.4 36.8586 42.272C36.9706 42.128 37.0266 41.96 37.0266 41.768C37.0266 41.496 36.9706 41.296 36.8586 41.168C36.7626 41.04 36.6106 40.968 36.4026 40.952L32.8026 40.448C31.6826 40.288 30.7786 39.92 30.0906 39.344C29.4186 38.768 29.0826 37.808 29.0826 36.464V33.944C29.0826 32.584 29.5226 31.544 30.4026 30.824C31.2826 30.088 32.4986 29.72 34.0506 29.72H40.7706C41.0746 29.72 41.2906 29.792 41.4186 29.936C41.5626 30.064 41.6346 30.28 41.6346 30.584V33.44C41.6346 33.744 41.5626 33.968 41.4186 34.112C41.2906 34.24 41.0746 34.304 40.7706 34.304H35.1786C34.9706 34.304 34.8106 34.376 34.6986 34.52C34.5866 34.648 34.5306 34.816 34.5306 35.024C34.5306 35.232 34.5866 35.408 34.6986 35.552C34.8106 35.696 34.9706 35.776 35.1786 35.792L38.7546 36.272C39.8746 36.432 40.7786 36.8 41.4666 37.376C42.1546 37.952 42.4986 38.912 42.4986 40.256V42.776C42.4986 44.136 42.0506 45.184 41.1546 45.92C40.2746 46.64 39.0666 47 37.5306 47ZM59.8986 47H56.1786C55.8746 47 55.6506 46.936 55.5066 46.808C55.3786 46.664 55.3146 46.44 55.3146 46.136V30.584C55.3146 30.28 55.3786 30.064 55.5066 29.936C55.6506 29.792 55.8746 29.72 56.1786 29.72H59.8986C60.2026 29.72 60.4186 29.792 60.5466 29.936C60.6906 30.064 60.7626 30.28 60.7626 30.584V35.792H64.7706V30.584C64.7706 30.28 64.8346 30.064 64.9626 29.936C65.1066 29.792 65.3306 29.72 65.6346 29.72H69.3546C69.6586 29.72 69.8746 29.792 70.0026 29.936C70.1466 30.064 70.2186 30.28 70.2186 30.584V46.136C70.2186 46.44 70.1466 46.664 70.0026 46.808C69.8746 46.936 69.6586 47 69.3546 47H65.6346C65.3306 47 65.1066 46.936 64.9626 46.808C64.8346 46.664 64.7706 46.44 64.7706 46.136V40.808H60.7626V46.136C60.7626 46.44 60.6906 46.664 60.5466 46.808C60.4186 46.936 60.2026 47 59.8986 47ZM84.1962 47C83.8922 47 83.6682 46.936 83.5242 46.808C83.3962 46.664 83.3322 46.44 83.3322 46.136V43.28C83.3322 42.976 83.3962 42.76 83.5242 42.632C83.6682 42.488 83.8922 42.416 84.1962 42.416H86.5722V34.352H84.1962C83.8922 34.352 83.6682 34.288 83.5242 34.16C83.3962 34.016 83.3322 33.792 83.3322 33.488V30.584C83.3322 30.28 83.3962 30.064 83.5242 29.936C83.6682 29.792 83.8922 29.72 84.1962 29.72H94.4202C94.7242 29.72 94.9402 29.792 95.0682 29.936C95.2122 30.064 95.2842 30.28 95.2842 30.584V33.488C95.2842 33.792 95.2122 34.016 95.0682 34.16C94.9402 34.288 94.7242 34.352 94.4202 34.352H92.0922V42.416H94.4202C94.7242 42.416 94.9402 42.488 95.0682 42.632C95.2122 42.76 95.2842 42.976 95.2842 43.28V46.136C95.2842 46.44 95.2122 46.664 95.0682 46.808C94.9402 46.936 94.7242 47 94.4202 47H84.1962ZM113.022 47H109.302C108.998 47 108.774 46.936 108.63 46.808C108.502 46.664 108.438 46.44 108.438 46.136V30.584C108.438 30.28 108.502 30.064 108.63 29.936C108.774 29.792 108.998 29.72 109.302 29.72H116.646C118.822 29.72 120.31 30.152 121.11 31.016C121.91 31.88 122.31 33.008 122.31 34.4V37.472C122.31 38.864 121.91 39.992 121.11 40.856C120.31 41.72 118.822 42.152 116.646 42.152H113.886V46.136C113.886 46.44 113.814 46.664 113.67 46.808C113.542 46.936 113.326 47 113.022 47ZM113.838 34.208V37.832H115.998C116.462 37.832 116.766 37.712 116.91 37.472C117.054 37.232 117.126 36.96 117.126 36.656V35.384C117.126 35.08 117.054 34.808 116.91 34.568C116.766 34.328 116.462 34.208 115.998 34.208H113.838Z" fill="white"/>
</svg>
