<svg width="24" height="24" viewBox="0 0 24 24" fill="none" xmlns="http://www.w3.org/2000/svg">
<g clip-path="url(#clip0_15_36)">
<path d="M0 1.5H3.33333L7.08333 16.875H20.25L23.3333 6H5.10417L3.875 0.75H0V1.5ZM7.58333 16.125L5.29167 6.75H22.4375L19.75 16.125H7.58333ZM8.66667 24C8.11111 24 7.63889 23.7812 7.25 23.3438C6.86111 22.9062 6.66667 22.375 6.66667 21.75C6.66667 21.125 6.86111 20.5938 7.25 20.1562C7.63889 19.7188 8.11111 19.5 8.66667 19.5C9.22222 19.5 9.69444 19.7188 10.0833 20.1562C10.4722 20.5938 10.6667 21.125 10.6667 21.75C10.6667 22.375 10.4722 22.9062 10.0833 23.3438C9.69444 23.7812 9.22222 24 8.66667 24ZM8.66667 23.25C9.04167 23.25 9.35764 23.1055 9.61458 22.8164C9.87153 22.5273 10 22.1719 10 21.75C10 21.3281 9.87153 20.9727 9.61458 20.6836C9.35764 20.3945 9.04167 20.25 8.66667 20.25C8.29167 20.25 7.97569 20.3945 7.71875 20.6836C7.46181 20.9727 7.33333 21.3281 7.33333 21.75C7.33333 22.1719 7.46181 22.5273 7.71875 22.8164C7.97569 23.1055 8.29167 23.25 8.66667 23.25ZM18.6667 24C18.1111 24 17.6389 23.7812 17.25 23.3438C16.8611 22.9062 16.6667 22.375 16.6667 21.75C16.6667 21.125 16.8611 20.5938 17.25 20.1562C17.6389 19.7188 18.1111 19.5 18.6667 19.5C19.2222 19.5 19.6944 19.7188 20.0833 20.1562C20.4722 20.5938 20.6667 21.125 20.6667 21.75C20.6667 22.375 20.4722 22.9062 20.0833 23.3438C19.6944 23.7812 19.2222 24 18.6667 24ZM18.6667 23.25C19.0417 23.25 19.3576 23.1055 19.6146 22.8164C19.8715 22.5273 20 22.1719 20 21.75C20 21.3281 19.8715 20.9727 19.6146 20.6836C19.3576 20.3945 19.0417 20.25 18.6667 20.25C18.2917 20.25 17.9757 20.3945 17.7188 20.6836C17.4618 20.9727 17.3333 21.3281 17.3333 21.75C17.3333 22.1719 17.4618 22.5273 17.7188 22.8164C17.9757 23.1055 18.2917 23.25 18.6667 23.25Z" fill="#333333" stroke="#333333"/>
</g>
<defs>
<clipPath id="clip0_15_36">
<rect width="24" height="24" fill="white" transform="matrix(1 0 0 -1 0 24)"/>
</clipPath>
</defs>
</svg>
