<svg width="40" height="40" viewBox="0 0 40 40" fill="none" xmlns="http://www.w3.org/2000/svg">
<path d="M13.75 9.005H12.75V10.005V30V31H13.75H16.9575H17.9575V30V23.91H21.1275C23.3428 23.91 25.2083 23.145 26.5182 21.7807C27.8227 20.422 28.5 18.549 28.5 16.465C28.5 14.398 27.8316 12.5235 26.5374 11.1578C25.2364 9.78485 23.3768 9.005 21.155 9.005H13.75ZM39 20C39 25.0391 36.9982 29.8718 33.435 33.435C29.8718 36.9982 25.0391 39 20 39C14.9609 39 10.1282 36.9982 6.56497 33.435C3.00178 29.8718 1 25.0391 1 20C1 14.9609 3.00178 10.1282 6.56497 6.56497C10.1282 3.00178 14.9609 1 20 1C25.0391 1 29.8718 3.00178 33.435 6.56497C36.9982 10.1282 39 14.9609 39 20ZM23.2225 16.465C23.2225 17.4624 22.9466 18.1172 22.5634 18.5178C22.1858 18.9124 21.585 19.185 20.675 19.185H17.945V13.76H20.6725C21.5872 13.76 22.1887 14.031 22.5653 14.4221C22.9468 14.8182 23.2225 15.4677 23.2225 16.465Z" stroke="#888888" stroke-width="2"/>
</svg>
