<svg width="187" height="187" viewBox="0 0 187 187" fill="none" xmlns="http://www.w3.org/2000/svg">
<path d="M73.6111 73.6111L113.389 113.389M113.389 73.6111L73.6111 113.389M4 93.5C4 105.253 6.31498 116.892 10.8128 127.75C15.3106 138.609 21.9031 148.475 30.2139 156.786C38.5248 165.097 48.3912 171.689 59.2498 176.187C70.1085 180.685 81.7467 183 93.5 183C105.253 183 116.892 180.685 127.75 176.187C138.609 171.689 148.475 165.097 156.786 156.786C165.097 148.475 171.689 138.609 176.187 127.75C180.685 116.892 183 105.253 183 93.5C183 81.7467 180.685 70.1085 176.187 59.2498C171.689 48.3912 165.097 38.5248 156.786 30.2139C148.475 21.9031 138.609 15.3106 127.75 10.8128C116.892 6.31499 105.253 4 93.5 4C81.7467 4 70.1085 6.31499 59.2498 10.8128C48.3912 15.3106 38.5248 21.9031 30.2139 30.2139C21.9031 38.5248 15.3106 48.3912 10.8128 59.2498C6.31498 70.1085 4 81.7467 4 93.5Z" stroke="#EEEEEE" stroke-width="8" stroke-linecap="round" stroke-linejoin="round"/>
</svg>
