<svg width="36" height="36" viewBox="0 0 36 36" fill="none" xmlns="http://www.w3.org/2000/svg">
<path fill-rule="evenodd" clip-rule="evenodd" d="M17.9997 0.0834961C16.9913 0.0834961 16.063 0.333496 15.048 0.753496C14.0663 1.16016 12.9263 1.7585 11.508 2.5035L8.06134 4.31183C6.31967 5.22516 4.92801 5.95683 3.84967 6.67516C2.73634 7.42016 1.87634 8.2035 1.25134 9.26516C0.628008 10.3235 0.348008 11.4702 0.213008 12.8352C0.0830077 14.1602 0.0830078 15.7885 0.0830078 17.8385V18.1618C0.0830078 20.2118 0.0830077 21.8402 0.213008 23.1652C0.348008 24.5318 0.629674 25.6768 1.25134 26.7352C1.87634 27.7968 2.73467 28.5802 3.85134 29.3252C4.92634 30.0435 6.31967 30.7752 8.06134 31.6885L11.508 33.4968C12.9263 34.2418 14.0663 34.8402 15.048 35.2468C16.0647 35.6668 16.9913 35.9168 17.9997 35.9168C19.008 35.9168 19.9363 35.6668 20.9513 35.2468C21.933 34.8402 23.073 34.2418 24.4913 33.4968L27.938 31.6902C29.6797 30.7752 31.0713 30.0435 32.148 29.3252C33.2647 28.5802 34.123 27.7968 34.748 26.7352C35.3713 25.6768 35.6513 24.5302 35.7863 23.1652C35.9163 21.8402 35.9163 20.2118 35.9163 18.1635V17.8368C35.9163 15.7885 35.9163 14.1602 35.7863 12.8352C35.6513 11.4685 35.3697 10.3235 34.748 9.26516C34.123 8.2035 33.2647 7.42016 32.148 6.67516C31.073 5.95683 29.6797 5.22516 27.938 4.31183L24.4913 2.5035C23.073 1.7585 21.933 1.16016 20.9513 0.753496C19.9347 0.333496 19.008 0.0834961 17.9997 0.0834961ZM12.6163 4.7435C14.0997 3.96516 15.1397 3.42183 16.003 3.06516C16.843 2.71683 17.4347 2.5835 17.9997 2.5835C18.5663 2.5835 19.1563 2.71683 19.9963 3.06516C20.8597 3.42183 21.898 3.96516 23.3813 4.7435L26.7147 6.4935C28.5313 7.44516 29.8063 8.11683 30.7613 8.7535C31.2313 9.0685 31.5997 9.36016 31.8997 9.6535L26.348 12.4285L12.1813 4.97183L12.6163 4.7435ZM9.57467 6.34016L9.28467 6.4935C7.46801 7.44516 6.19301 8.11683 5.23967 8.7535C4.8332 9.01763 4.45212 9.31892 4.10134 9.6535L17.9997 16.6035L23.5947 13.8035L9.91801 6.60683C9.78975 6.53732 9.67376 6.44724 9.57467 6.34016ZM2.89634 11.8452C2.81301 12.2018 2.74801 12.6068 2.70134 13.0785C2.58467 14.2685 2.58301 15.7735 2.58301 17.9018V18.0968C2.58301 20.2268 2.58301 21.7318 2.70134 22.9202C2.81634 24.0818 3.03467 24.8335 3.40634 25.4668C3.77634 26.0952 4.31134 26.6268 5.23967 27.2468C6.19301 27.8835 7.46801 28.5552 9.28467 29.5068L12.618 31.2568C14.1013 32.0352 15.1397 32.5785 16.003 32.9352C16.2741 33.0474 16.523 33.139 16.7497 33.2102V18.7718L2.89634 11.8452ZM19.2497 33.2085C19.4763 33.1385 19.7252 33.0474 19.9963 32.9352C20.8597 32.5785 21.898 32.0352 23.3813 31.2568L26.7147 29.5068C28.5313 28.5535 29.8063 27.8835 30.7613 27.2468C31.688 26.6268 32.223 26.0952 32.5947 25.4668C32.9663 24.8335 33.183 24.0835 33.298 22.9202C33.4147 21.7318 33.4163 20.2268 33.4163 18.0985V17.9035C33.4163 15.7735 33.4163 14.2685 33.298 13.0802C33.2588 12.6654 33.1936 12.2535 33.103 11.8468L27.583 14.6052V19.6668C27.583 19.9984 27.4513 20.3163 27.2169 20.5507C26.9825 20.7851 26.6645 20.9168 26.333 20.9168C26.0015 20.9168 25.6835 20.7851 25.4491 20.5507C25.2147 20.3163 25.083 19.9984 25.083 19.6668V15.8568L19.2497 18.7735V33.2085Z" fill="#888888"/>
</svg>
