<svg width="27" height="27" viewBox="0 0 27 27" fill="none" xmlns="http://www.w3.org/2000/svg">
<path d="M7.91665 12.6453V8.38728C7.91665 6.97564 8.48734 5.62182 9.50316 4.62364C10.519 3.62547 11.8967 3.0647 13.3333 3.0647C14.7699 3.0647 16.1477 3.62547 17.1635 4.62364C18.1793 5.62182 18.75 6.97564 18.75 8.38728V12.6453M5.74999 12.6453H20.9167C22.1133 12.6453 23.0833 13.5985 23.0833 14.7744V22.226C23.0833 23.4018 22.1133 24.355 20.9167 24.355H5.74999C4.55337 24.355 3.58332 23.4018 3.58332 22.226V14.7744C3.58332 13.5985 4.55337 12.6453 5.74999 12.6453Z" stroke="#777777" stroke-width="2.5" stroke-linecap="round" stroke-linejoin="round"/>
</svg>
