<svg width="24" height="24" viewBox="0 0 24 24" fill="none" xmlns="http://www.w3.org/2000/svg">
<g clip-path="url(#clip0_15_39)">
<path d="M16.9688 6.42188C16.9688 5.73438 16.8359 5.09375 16.5703 4.5C16.3203 3.89062 15.9688 3.36328 15.5156 2.91797C15.0625 2.47266 14.5391 2.11719 13.9453 1.85156C13.3359 1.58594 12.6875 1.45312 12 1.45312C11.3125 1.45312 10.6719 1.58594 10.0781 1.85156C9.46875 2.11719 8.94141 2.47266 8.49609 2.91797C8.05078 3.36328 7.69531 3.89062 7.42969 4.5C7.17969 5.09375 7.05469 5.73438 7.05469 6.42188C7.05469 7.10938 7.17969 7.75 7.42969 8.34375C7.69531 8.95312 8.05078 9.48047 8.49609 9.92578C8.94141 10.3711 9.46875 10.7266 10.0781 10.9922C10.6719 11.2578 11.3125 11.3906 12 11.3906C12.6875 11.3906 13.3359 11.2578 13.9453 10.9922C14.5391 10.7422 15.0625 10.3906 15.5156 9.9375C15.9688 9.48438 16.3203 8.95312 16.5703 8.34375C16.8359 7.75 16.9688 7.10938 16.9688 6.42188ZM17.6719 6.42188C17.6719 7.20312 17.5234 7.9375 17.2266 8.625C16.9297 9.3125 16.5273 9.91406 16.0195 10.4297C15.5117 10.9453 14.9141 11.3516 14.2266 11.6484C13.5234 11.9453 12.7812 12.0938 12 12.0938C11.2188 12.0938 10.4844 11.9453 9.79688 11.6484C9.10938 11.3516 8.50781 10.9453 7.99219 10.4297C7.47656 9.91406 7.07031 9.3125 6.77344 8.625C6.47656 7.9375 6.32812 7.20312 6.32812 6.42188C6.32812 5.64062 6.47656 4.90625 6.77344 4.21875C7.07031 3.53125 7.47656 2.92969 7.99219 2.41406C8.50781 1.89844 9.10938 1.49219 9.79688 1.19531C10.4844 0.898438 11.2188 0.75 12 0.75C12.7812 0.75 13.5234 0.898438 14.2266 1.19531C14.9141 1.49219 15.5117 1.89844 16.0195 2.41406C16.5273 2.92969 16.9297 3.53125 17.2266 4.21875C17.5234 4.90625 17.6719 5.64062 17.6719 6.42188ZM12 15.6797C13.2031 15.6797 14.3516 15.8672 15.4453 16.2422C16.5391 16.6172 17.5312 17.1406 18.4219 17.8125C19.3125 18.4844 20.0781 19.2891 20.7188 20.2266C21.375 21.1484 21.8672 22.1562 22.1953 23.25H22.9219C22.5938 22.0625 22.0859 20.9609 21.3984 19.9453C20.6953 18.9297 19.8672 18.0547 18.9141 17.3203C17.9609 16.5859 16.8984 16.0078 15.7266 15.5859C14.5547 15.1797 13.3125 14.9766 12 14.9766C10.7031 14.9766 9.46875 15.1797 8.29688 15.5859C7.125 16.0078 6.05859 16.5859 5.09766 17.3203C4.13672 18.0547 3.3125 18.9297 2.625 19.9453C1.9375 20.9609 1.42188 22.0625 1.07812 23.25H1.82812C2.15625 22.1562 2.64062 21.1484 3.28125 20.2266C3.9375 19.2891 4.71094 18.4844 5.60156 17.8125C6.49219 17.1406 7.48438 16.6172 8.57812 16.2422C9.65625 15.8672 10.7969 15.6797 12 15.6797Z" fill="#333333" stroke="#333333"/>
</g>
<defs>
<clipPath id="clip0_15_39">
<rect width="24" height="24" fill="white" transform="matrix(1 0 0 -1 0 24)"/>
</clipPath>
</defs>
</svg>
