<svg width="24" height="24" viewBox="0 0 24 24" fill="none" xmlns="http://www.w3.org/2000/svg">
<g clip-path="url(#clip0_2_122)">
<path d="M18.7734 10.125C18.7734 8.9375 18.5469 7.8125 18.0938 6.75C17.6406 5.70312 17.0234 4.78906 16.2422 4.00781C15.4609 3.22656 14.5469 2.60938 13.5 2.15625C12.4375 1.70312 11.3125 1.47656 10.125 1.47656C8.9375 1.47656 7.8125 1.70312 6.75 2.15625C5.70312 2.60938 4.78906 3.22656 4.00781 4.00781C3.22656 4.78906 2.60938 5.70312 2.15625 6.75C1.70312 7.8125 1.47656 8.9375 1.47656 10.125C1.47656 11.3125 1.70312 12.4375 2.15625 13.5C2.60938 14.5469 3.22656 15.4609 4.00781 16.2422C4.78906 17.0234 5.70312 17.6406 6.75 18.0938C7.8125 18.5469 8.9375 18.7734 10.125 18.7734C11.3125 18.7734 12.4375 18.5469 13.5 18.0938C14.5469 17.6406 15.4609 17.0234 16.2422 16.2422C17.0234 15.4609 17.6406 14.5469 18.0938 13.5C18.5469 12.4375 18.7734 11.3125 18.7734 10.125ZM16.4766 17.0156C15.6484 17.7812 14.6914 18.3867 13.6055 18.832C12.5195 19.2773 11.3594 19.5 10.125 19.5C8.82812 19.5 7.60938 19.2578 6.46875 18.7734C5.32812 18.2734 4.33594 17.6016 3.49219 16.7578C2.64844 15.9141 1.97656 14.9219 1.47656 13.7812C0.992188 12.6406 0.75 11.4219 0.75 10.125C0.75 8.82812 0.992188 7.60938 1.47656 6.46875C1.97656 5.32812 2.64844 4.33594 3.49219 3.49219C4.33594 2.64844 5.32812 1.97656 6.46875 1.47656C7.60938 0.992188 8.82812 0.75 10.125 0.75C11.4219 0.75 12.6406 0.992188 13.7812 1.47656C14.9219 1.97656 15.9141 2.64844 16.7578 3.49219C17.6016 4.33594 18.2734 5.32812 18.7734 6.46875C19.2578 7.60938 19.5 8.82812 19.5 10.125C19.5 11.3594 19.2773 12.5195 18.832 13.6055C18.3867 14.6914 17.7812 15.6484 17.0156 16.4766L23.1328 22.6172L22.6172 23.1328L16.4766 17.0156Z" fill="#333333" stroke="#333333"/>
</g>
<defs>
<clipPath id="clip0_2_122">
<rect width="24" height="24" fill="white" transform="matrix(1 0 0 -1 0 24)"/>
</clipPath>
</defs>
</svg>
